HIERARCHY
ROOT newVegas:Hips
{
	OFFSET 0.000000 96.479958 0.000000
	CHANNELS 6 Xposition Yposition Zposition Xrotation Yrotation Zrotation
	JOINT newVegas:Pelvis
	{
		OFFSET 0.000000 0.000000 0.000000
		CHANNELS 3 Xrotation Yrotation Zrotation
		JOINT newVegas:LeftUpLeg
		{
			OFFSET 18.735201 -5.666702 -4.541200
			CHANNELS 3 Xrotation Yrotation Zrotation
			JOINT newVegas:LeftLeg
			{
				OFFSET -0.021200 -31.938179 0.493100
				CHANNELS 3 Xrotation Yrotation Zrotation
				JOINT newVegas:LeftFoot
				{
					OFFSET 0.021200 -31.938179 -4.336299
					CHANNELS 3 Xrotation Yrotation Zrotation
					JOINT newVegas:LeftToeBase
					{
						OFFSET 0.943001 -26.722000 15.023500
						CHANNELS 3 Xrotation Yrotation Zrotation
						End Site
						{
							OFFSET 0.000000 30.670183 0.000000
						}
					}
				}
				JOINT newVegas:Left_PantLeg
				{
					OFFSET 0.663870 -9.044666 -1.108900
					CHANNELS 3 Xrotation Yrotation Zrotation
					End Site
					{
						OFFSET 1.415995 20.635357 0.000000
					}
				}
			}
		}
		JOINT newVegas:RightUpLeg
		{
			OFFSET -18.735201 -5.666702 -4.541200
			CHANNELS 3 Xrotation Yrotation Zrotation
			JOINT newVegas:RightLeg
			{
				OFFSET 0.018946 -31.938133 0.493100
				CHANNELS 3 Xrotation Yrotation Zrotation
				JOINT newVegas:RightFoot
				{
					OFFSET -0.018946 -31.938126 -4.336299
					CHANNELS 3 Xrotation Yrotation Zrotation
					JOINT newVegas:RightToeBase
					{
						OFFSET -0.943001 -26.722004 15.023500
						CHANNELS 3 Xrotation Yrotation Zrotation
						End Site
						{
							OFFSET 0.000000 30.670187 0.000000
						}
					}
				}
				JOINT newVegas:Right_PantLeg
				{
					OFFSET -0.661674 -9.044716 -1.108900
					CHANNELS 3 Xrotation Yrotation Zrotation
					End Site
					{
						OFFSET -1.415958 20.635269 0.000000
					}
				}
			}
		}
	}
	JOINT newVegas:Spine
	{
		OFFSET 0.000000 10.199997 -0.299500
		CHANNELS 3 Xrotation Yrotation Zrotation
		JOINT newVegas:Spine1
		{
			OFFSET 0.000000 11.900002 -1.516600
			CHANNELS 3 Xrotation Yrotation Zrotation
			JOINT newVegas:Spine2
			{
				OFFSET 0.000000 13.600006 -2.842500
				CHANNELS 3 Xrotation Yrotation Zrotation
				JOINT newVegas:Neck
				{
					OFFSET 0.000000 9.624100 -2.890100
					CHANNELS 3 Xrotation Yrotation Zrotation
					JOINT newVegas:Head
					{
						OFFSET 0.000000 14.068802 -1.351900
						CHANNELS 3 Xrotation Yrotation Zrotation
						JOINT newVegas:Hair_Back
						{
							OFFSET 0.000000 3.231903 -17.524799
							CHANNELS 3 Xrotation Yrotation Zrotation
							End Site
							{
								OFFSET 0.000000 19.849884 0.000000
							}
						}
						JOINT newVegas:Hair_Front
						{
							OFFSET 0.000000 31.260406 4.573800
							CHANNELS 3 Xrotation Yrotation Zrotation
							JOINT newVegas:Hair_Front1
							{
								OFFSET 0.000000 2.284103 11.993300
								CHANNELS 3 Xrotation Yrotation Zrotation
								JOINT newVegas:Hair_Front2
								{
									OFFSET 0.000000 2.284103 11.993300
									CHANNELS 3 Xrotation Yrotation Zrotation
									End Site
									{
										OFFSET 0.000000 12.208862 0.000000
									}
								}
							}
						}
						JOINT newVegas:Jowel
						{
							OFFSET 0.000000 -7.458206 6.864100
							CHANNELS 3 Xrotation Yrotation Zrotation
							End Site
							{
								OFFSET 0.000000 19.849884 0.000000
							}
						}
					}
				}
				JOINT newVegas:LeftShoulder
				{
					OFFSET 15.263000 10.923401 -0.547700
					CHANNELS 3 Xrotation Yrotation Zrotation
					JOINT newVegas:LeftArm
					{
						OFFSET 25.438599 -2.830597 -13.032500
						CHANNELS 3 Xrotation Yrotation Zrotation
						JOINT newVegas:LeftForeArm
						{
							OFFSET 29.960503 0.000000 0.000000
							CHANNELS 3 Xrotation Yrotation Zrotation
							JOINT newVegas:LeftHand
							{
								OFFSET 27.849251 0.000000 0.000000
								CHANNELS 3 Xrotation Yrotation Zrotation
								JOINT newVegas:LeftHandThumb1
								{
									OFFSET 4.487587 -3.305161 6.305391
									CHANNELS 3 Xrotation Yrotation Zrotation
									JOINT newVegas:LeftHandThumb2
									{
										OFFSET 5.480453 -3.164139 3.164143
										CHANNELS 3 Xrotation Yrotation Zrotation
										JOINT newVegas:LeftHandThumb3
										{
											OFFSET 5.159721 -2.978973 2.978967
											CHANNELS 3 Xrotation Yrotation Zrotation
											End Site
											{
												OFFSET 2.494507 5.926697 1.738678
											}
										}
									}
								}
								JOINT newVegas:LeftHandIndex1
								{
									OFFSET 18.578728 -0.527832 5.208049
									CHANNELS 3 Xrotation Yrotation Zrotation
									JOINT newVegas:LeftHandIndex2
									{
										OFFSET 3.192009 0.000000 0.000000
										CHANNELS 3 Xrotation Yrotation Zrotation
										JOINT newVegas:LeftHandIndex3
										{
											OFFSET 3.835129 0.000000 0.000000
											CHANNELS 3 Xrotation Yrotation Zrotation
											End Site
											{
												OFFSET -0.034599 3.816971 0.371180
											}
										}
									}
								}
								JOINT newVegas:LeftHandMiddle1
								{
									OFFSET 18.476105 0.000000 0.000000
									CHANNELS 3 Xrotation Yrotation Zrotation
									JOINT newVegas:LeftHandMiddle2
									{
										OFFSET 3.324875 0.000000 0.000000
										CHANNELS 3 Xrotation Yrotation Zrotation
										JOINT newVegas:LeftHandMiddle3
										{
											OFFSET 4.596550 0.000000 0.000000
											CHANNELS 3 Xrotation Yrotation Zrotation
											End Site
											{
												OFFSET 0.057701 4.578827 0.399218
											}
										}
									}
								}
								JOINT newVegas:LeftHandRing1
								{
									OFFSET 17.732719 0.121887 -4.201567
									CHANNELS 3 Xrotation Yrotation Zrotation
									JOINT newVegas:LeftHandRing2
									{
										OFFSET 2.733170 0.000000 0.000000
										CHANNELS 3 Xrotation Yrotation Zrotation
										JOINT newVegas:LeftHandRing3
										{
											OFFSET 3.178268 0.000000 0.000000
											CHANNELS 3 Xrotation Yrotation Zrotation
											End Site
											{
												OFFSET 0.119102 3.170624 0.185394
											}
										}
									}
								}
								JOINT newVegas:LeftHandPinky1
								{
									OFFSET 15.989624 -0.606689 -7.535461
									CHANNELS 3 Xrotation Yrotation Zrotation
									JOINT newVegas:LeftHandPinky2
									{
										OFFSET 2.538986 0.000000 0.000000
										CHANNELS 3 Xrotation Yrotation Zrotation
										JOINT newVegas:LeftHandPinky3
										{
											OFFSET 2.593102 0.000000 0.000000
											CHANNELS 3 Xrotation Yrotation Zrotation
											End Site
											{
												OFFSET -0.150902 2.584198 0.152708
											}
										}
									}
								}
							}
							JOINT newVegas:Left_Sleeve
							{
								OFFSET 0.267448 -0.649796 0.577675
								CHANNELS 3 Xrotation Yrotation Zrotation
								End Site
								{
									OFFSET 0.000000 15.991241 0.000000
								}
							}
							JOINT newVegas:Left_CapeC
							{
								OFFSET 15.715958 -8.608795 -6.935905
								CHANNELS 3 Xrotation Yrotation Zrotation
								JOINT newVegas:Left_CapeC1
								{
									OFFSET 0.000000 -8.688499 0.000000
									CHANNELS 3 Xrotation Yrotation Zrotation
									End Site
									{
										OFFSET 0.000000 8.688499 0.000000
									}
								}
							}
						}
						JOINT newVegas:Left_CapeB
						{
							OFFSET 26.118385 -8.608795 -7.079235
							CHANNELS 3 Xrotation Yrotation Zrotation
							JOINT newVegas:Left_CapeB1
							{
								OFFSET 0.000000 -8.688499 0.000000
								CHANNELS 3 Xrotation Yrotation Zrotation
								End Site
								{
									OFFSET 0.000000 8.688499 0.000000
								}
							}
						}
						JOINT newVegas:Left_CapeA
						{
							OFFSET 5.115639 -8.608795 -10.395809
							CHANNELS 3 Xrotation Yrotation Zrotation
							JOINT newVegas:Left_CapeA1
							{
								OFFSET 0.000000 -8.688499 0.000000
								CHANNELS 3 Xrotation Yrotation Zrotation
								End Site
								{
									OFFSET 0.000000 8.688499 0.000000
								}
							}
						}
					}
				}
				JOINT newVegas:RightShoulder
				{
					OFFSET -15.263000 10.923401 -0.547700
					CHANNELS 3 Xrotation Yrotation Zrotation
					JOINT newVegas:RightArm
					{
						OFFSET -25.438599 -2.830597 -13.032500
						CHANNELS 3 Xrotation Yrotation Zrotation
						JOINT newVegas:RightForeArm
						{
							OFFSET -29.960503 0.000000 0.000000
							CHANNELS 3 Xrotation Yrotation Zrotation
							JOINT newVegas:RightHand
							{
								OFFSET -27.849251 0.000000 0.000000
								CHANNELS 3 Xrotation Yrotation Zrotation
								JOINT newVegas:RightHandThumb1
								{
									OFFSET -4.487587 -3.305161 6.305391
									CHANNELS 3 Xrotation Yrotation Zrotation
									JOINT newVegas:RightHandThumb2
									{
										OFFSET -5.480453 -3.164139 3.164143
										CHANNELS 3 Xrotation Yrotation Zrotation
										JOINT newVegas:RightHandThumb3
										{
											OFFSET -5.159721 -2.978973 2.978967
											CHANNELS 3 Xrotation Yrotation Zrotation
											End Site
											{
												OFFSET -2.494507 5.926697 1.738678
											}
										}
									}
								}
								JOINT newVegas:RightHandIndex1
								{
									OFFSET -18.578728 -0.527832 5.208049
									CHANNELS 3 Xrotation Yrotation Zrotation
									JOINT newVegas:RightHandIndex2
									{
										OFFSET -3.192009 0.000000 0.000000
										CHANNELS 3 Xrotation Yrotation Zrotation
										JOINT newVegas:RightHandIndex3
										{
											OFFSET -3.835129 0.000000 0.000000
											CHANNELS 3 Xrotation Yrotation Zrotation
											End Site
											{
												OFFSET 0.034599 3.816971 0.371180
											}
										}
									}
								}
								JOINT newVegas:RightHandMiddle1
								{
									OFFSET -18.476105 0.000000 0.000000
									CHANNELS 3 Xrotation Yrotation Zrotation
									JOINT newVegas:RightHandMiddle2
									{
										OFFSET -3.324875 0.000000 0.000000
										CHANNELS 3 Xrotation Yrotation Zrotation
										JOINT newVegas:RightHandMiddle3
										{
											OFFSET -4.596550 0.000000 0.000000
											CHANNELS 3 Xrotation Yrotation Zrotation
											End Site
											{
												OFFSET -0.057701 4.578827 0.399218
											}
										}
									}
								}
								JOINT newVegas:RightHandRing1
								{
									OFFSET -17.732719 0.121887 -4.201567
									CHANNELS 3 Xrotation Yrotation Zrotation
									JOINT newVegas:RightHandRing2
									{
										OFFSET -2.733170 0.000000 0.000000
										CHANNELS 3 Xrotation Yrotation Zrotation
										JOINT newVegas:RightHandRing3
										{
											OFFSET -3.178268 0.000000 0.000000
											CHANNELS 3 Xrotation Yrotation Zrotation
											End Site
											{
												OFFSET -0.119102 3.170624 0.185394
											}
										}
									}
								}
								JOINT newVegas:RightHandPinky1
								{
									OFFSET -15.989624 -0.606689 -7.535461
									CHANNELS 3 Xrotation Yrotation Zrotation
									JOINT newVegas:RightHandPinky2
									{
										OFFSET -2.538986 0.000000 0.000000
										CHANNELS 3 Xrotation Yrotation Zrotation
										JOINT newVegas:RightHandPinky3
										{
											OFFSET -2.593102 0.000000 0.000000
											CHANNELS 3 Xrotation Yrotation Zrotation
											End Site
											{
												OFFSET 0.150902 2.584198 0.152708
											}
										}
									}
								}
							}
							JOINT newVegas:Right_CapeC
							{
								OFFSET -15.715958 -8.608795 -6.935905
								CHANNELS 3 Xrotation Yrotation Zrotation
								JOINT newVegas:Right_CapeC1
								{
									OFFSET 0.000000 -8.688499 0.000000
									CHANNELS 3 Xrotation Yrotation Zrotation
									End Site
									{
										OFFSET 0.000000 8.688499 0.000000
									}
								}
							}
							JOINT newVegas:Right_Sleeve
							{
								OFFSET -0.267448 -0.649994 0.577675
								CHANNELS 3 Xrotation Yrotation Zrotation
								End Site
								{
									OFFSET 0.000000 15.991302 0.000000
								}
							}
						}
						JOINT newVegas:Right_CapeA
						{
							OFFSET -5.115540 -8.608795 -10.395824
							CHANNELS 3 Xrotation Yrotation Zrotation
							JOINT newVegas:Right_CapeA1
							{
								OFFSET 0.000000 -8.688499 0.000000
								CHANNELS 3 Xrotation Yrotation Zrotation
								End Site
								{
									OFFSET 0.000000 8.688499 0.000000
								}
							}
						}
						JOINT newVegas:Right_CapeB
						{
							OFFSET -26.118187 -8.608795 -7.079266
							CHANNELS 3 Xrotation Yrotation Zrotation
							JOINT newVegas:Right_CapeB1
							{
								OFFSET 0.000000 -8.688499 0.000000
								CHANNELS 3 Xrotation Yrotation Zrotation
								End Site
								{
									OFFSET 0.000000 8.688499 0.000000
								}
							}
						}
					}
				}
				JOINT newVegas:Left_Collar
				{
					OFFSET 18.625099 8.655502 8.828100
					CHANNELS 3 Xrotation Yrotation Zrotation
					JOINT newVegas:Left_Collar1
					{
						OFFSET 14.783401 10.540405 -1.259500
						CHANNELS 3 Xrotation Yrotation Zrotation
						End Site
						{
							OFFSET 0.000000 18.199875 0.000000
						}
					}
				}
				JOINT newVegas:Collar_Back
				{
					OFFSET 0.000000 15.630707 -20.132601
					CHANNELS 3 Xrotation Yrotation Zrotation
					End Site
					{
						OFFSET 0.000000 22.523010 0.000000
					}
				}
				JOINT newVegas:Left_Peck
				{
					OFFSET 17.239599 -5.132599 25.482599
					CHANNELS 3 Xrotation Yrotation Zrotation
					End Site
					{
						OFFSET 0.000000 22.523010 0.000000
					}
				}
				JOINT newVegas:Right_Peck
				{
					OFFSET -17.239599 -5.132202 25.482599
					CHANNELS 3 Xrotation Yrotation Zrotation
					End Site
					{
						OFFSET 0.000000 22.523010 0.000000
					}
				}
				JOINT newVegas:Right_Collar
				{
					OFFSET -18.625099 8.655792 8.828100
					CHANNELS 3 Xrotation Yrotation Zrotation
					JOINT newVegas:Right_Collar1
					{
						OFFSET -14.783401 10.539993 -1.259500
						CHANNELS 3 Xrotation Yrotation Zrotation
						End Site
						{
							OFFSET 0.000000 18.199631 0.000000
						}
					}
				}
			}
		}
		JOINT newVegas:Belly
		{
			OFFSET 0.000000 -6.540398 9.014299
			CHANNELS 3 Xrotation Yrotation Zrotation
			End Site
			{
				OFFSET 0.000000 11.566666 0.000000
			}
		}
	}
	JOINT newVegas:ElvisFacialAnim_Joint
	{
		OFFSET 1.000000 -95.330101 -8.825800
		CHANNELS 3 Xrotation Yrotation Zrotation
		End Site
		{
			OFFSET 0.000000 35.315800 0.000000
		}
	}
}
MOTION
Frames: 4
Frame Time: 0.016667
6.815404 86.615005 5.168959 7.620504 -12.345873 -0.949433 -0.000000 -0.000001 -0.000000 -39.931676 4.997168 14.278201 56.794314 9.375261 -0.902097 -22.260683 5.105371 -9.855287 -0.000000 0.000000 0.000000 -0.000001 0.000001 0.000001 -27.428990 -6.421377 -16.222087 53.130314 -8.042723 -3.979721 -14.519869 -2.158220 13.683968 -0.000000 -0.000001 -0.000000 0.000001 0.000002 -0.000002 12.248040 3.332645 -0.973821 8.663415 6.770423 -1.612663 -3.297306 6.958099 -0.159533 -0.211430 -0.791701 0.479533 -0.211444 -0.791701 0.479532 -0.000001 0.000000 -0.000000 -0.211433 -0.791701 0.479534 -0.211425 -0.791699 0.479533 -0.000000 -0.000000 -0.000000 -0.000001 0.000000 -0.000000 -1.718770 -6.046464 -0.999763 -9.929218 -3.537259 -61.475671 -13.021845 -28.779231 -4.874852 3.253028 -3.484884 2.550459 9.040737 -12.718938 18.216728 1.363586 15.487442 -8.835075 0.000003 -0.000002 0.000000 0.246862 -3.282377 -9.380896 0.146905 -0.568589 -12.524021 0.000002 -0.000001 0.000000 0.303769 -1.400864 -19.445135 -0.067848 -0.992383 -19.744943 -0.000002 -0.000002 -0.000000 0.311363 -1.053626 -29.065607 -0.418707 -1.362112 -26.922190 0.000002 0.000001 0.000001 0.350740 -0.343927 -35.674679 -0.294687 -1.232626 -23.599892 0.000003 -0.000000 0.000002 -0.000000 0.000001 -0.000003 -0.000000 0.000001 -0.000003 -0.000000 0.000000 -0.000003 -0.000000 -0.000001 0.000001 0.000000 0.000000 0.000001 -0.000000 -0.000001 0.000001 -0.000000 -0.000000 0.000001 5.719875 -19.303438 3.068950 43.556693 52.747611 9.950991 16.038116 32.046831 10.507639 -14.715655 13.315889 13.704588 9.209769 13.472184 -12.080019 2.060336 -16.534840 8.984669 -0.000000 -0.000001 -0.000004 0.272418 4.252679 3.917175 0.097342 0.794959 17.452791 -0.000001 0.000000 -0.000002 0.238344 1.901040 12.464135 -0.127019 0.878979 17.470126 -0.000001 -0.000002 -0.000000 0.354426 1.611364 15.137403 -0.271879 0.900464 18.135614 0.000000 0.000000 0.000005 0.691707 0.544316 20.829717 -0.117073 0.729761 14.164462 -0.000002 -0.000002 -0.000002 -0.000001 -0.000002 0.000001 -0.000001 -0.000001 0.000001 -0.000001 -0.000002 0.000001 -0.000001 0.000004 0.000001 -0.000001 0.000005 0.000001 -0.000001 0.000004 0.000001 -0.000001 0.000005 0.000001 0.000000 -0.000000 -0.000000 0.000000 -0.000000 -0.000000 0.000000 -0.000000 -0.000000 0.000000 -0.000000 -0.000000 0.000000 -0.000000 -0.000000 0.000000 -0.000000 -0.000000 0.000000 -0.000000 -0.000000 0.000002 0.000000 -0.000000 -0.000000 -0.000001 -0.000000 
6.911315 86.925652 5.052660 7.680641 -12.395408 -1.253718 -0.000001 0.000000 -0.000000 -39.842211 5.021163 14.462529 56.094237 9.374143 -0.825148 -21.818898 5.038723 -9.709173 0.000000 0.000000 -0.000000 0.000001 0.000000 0.000001 -26.563401 -6.778463 -15.678166 50.734413 -7.315936 -3.857938 -15.367750 -1.736042 14.217023 -0.000000 -0.000001 0.000000 -0.000001 0.000001 -0.000002 12.202912 3.283039 -0.929114 8.547019 6.722059 -1.512190 -3.408233 6.901167 -0.063846 -0.222082 -0.748961 0.442194 -0.222108 -0.748961 0.442191 0.000001 0.000000 -0.000000 -0.222097 -0.748964 0.442194 -0.222090 -0.748957 0.442193 0.000000 0.000000 -0.000000 0.000001 0.000000 -0.000000 -1.721886 -5.625957 -0.861950 -9.809323 -3.483230 -61.749650 -12.683613 -28.217829 -4.423306 2.945146 -3.556558 2.922814 8.621184 -13.079495 18.342618 1.306462 15.454478 -8.827684 0.000003 0.000000 -0.000004 0.229294 -3.521990 -8.971266 0.151040 -0.550438 -12.121727 -0.000001 -0.000001 -0.000001 0.267607 -1.573910 -19.285077 -0.064362 -0.926974 -18.408091 -0.000001 -0.000000 0.000001 0.257087 -1.314070 -28.904247 -0.368988 -1.304190 -25.643812 -0.000002 -0.000002 -0.000003 0.348995 -0.523200 -35.437187 -0.234772 -1.172899 -22.279343 0.000002 -0.000005 -0.000004 -0.000000 0.000000 0.000002 -0.000000 0.000000 0.000002 -0.000000 -0.000000 0.000001 0.000001 -0.000001 -0.000000 0.000001 -0.000002 -0.000001 0.000001 -0.000001 -0.000000 -0.000000 -0.000001 -0.000000 5.552880 -18.831827 2.973357 39.568263 52.456587 11.456165 15.406282 28.844336 12.492150 -12.915770 11.870643 10.921190 8.723128 10.519480 -15.535911 3.760554 -18.612728 9.384823 0.000001 -0.000001 0.000001 0.272407 4.252688 3.917190 0.097365 0.794935 17.452764 -0.000000 -0.000000 0.000003 0.238600 1.901090 12.464088 -0.127006 0.878888 17.470142 -0.000002 0.000002 0.000003 0.333465 1.685678 16.601062 -0.293352 0.971919 19.599076 0.000001 -0.000003 0.000004 0.658933 0.626593 22.524514 -0.138277 0.820297 15.858972 0.000002 -0.000000 -0.000000 0.000000 0.000000 0.000001 0.000001 -0.000000 0.000000 0.000000 -0.000000 0.000000 0.000003 0.000000 0.000001 0.000003 0.000001 0.000000 0.000003 0.000000 0.000001 0.000003 0.000001 -0.000000 0.000000 -0.000000 0.000000 0.000000 -0.000000 0.000000 0.000000 -0.000000 0.000000 0.000000 -0.000000 0.000000 0.000000 -0.000000 0.000000 0.000000 -0.000000 0.000000 0.000000 -0.000000 0.000000 0.000001 0.000000 0.000000 -0.000001 0.000000 -0.000000 
6.993241 87.268494 4.922643 7.697535 -12.548046 -1.418310 -0.000000 -0.000001 0.000000 -39.538691 5.203620 14.539804 55.148761 9.415800 -0.747807 -21.289771 5.001097 -9.563489 0.000000 -0.000000 -0.000000 -0.000001 -0.000001 0.000001 -25.569102 -7.050436 -15.246908 48.074666 -6.688370 -3.720465 -16.128964 -1.343780 14.634061 0.000000 -0.000001 -0.000001 0.000000 -0.000003 -0.000002 12.137583 3.253322 -0.884161 8.392767 6.705787 -1.434637 -3.557802 6.874138 0.015578 -0.259920 -0.695444 0.358457 -0.259922 -0.695445 0.358457 0.000002 0.000000 -0.000000 -0.259915 -0.695445 0.358457 -0.259905 -0.695444 0.358458 0.000001 0.000000 -0.000000 0.000002 0.000000 -0.000000 -1.718686 -4.981516 -0.876835 -9.749999 -3.501929 -62.027427 -12.393329 -27.714435 -3.952338 2.908204 -3.641415 2.842473 8.234325 -13.400440 18.456476 1.254982 15.424700 -8.821077 0.000001 0.000003 -0.000003 0.217574 -3.737806 -8.582437 0.154705 -0.534109 -11.758755 -0.000000 -0.000002 -0.000000 0.236383 -1.729272 -19.127292 -0.062507 -0.868307 -17.202183 -0.000002 0.000001 0.000000 0.210337 -1.547693 -28.740108 -0.325334 -1.250632 -24.490864 0.000001 0.000001 -0.000004 0.351878 -0.683515 -35.201173 -0.181885 -1.117261 -21.088354 0.000000 -0.000002 0.000002 0.000000 -0.000000 -0.000000 0.000000 -0.000000 -0.000000 0.000000 -0.000001 -0.000000 -0.000000 -0.000001 -0.000000 0.000000 0.000000 -0.000000 -0.000000 -0.000001 -0.000000 -0.000000 -0.000000 -0.000000 5.335513 -18.451761 2.888868 35.701327 51.672300 13.059067 16.301537 26.406584 13.088693 -11.445492 11.784236 6.571867 8.389705 8.489660 -17.965515 4.956787 -20.040685 9.703271 -0.000001 -0.000001 0.000001 0.272400 4.252671 3.917152 0.097327 0.794969 17.452856 0.000000 -0.000001 0.000001 0.238804 1.901188 12.464092 -0.127015 0.878926 17.470133 0.000001 -0.000002 0.000002 0.317765 1.737015 17.612010 -0.308449 1.021281 20.609992 0.000002 0.000000 0.000003 0.634941 0.682608 23.695195 -0.152814 0.879847 17.029591 0.000001 -0.000000 0.000001 -0.000001 -0.000002 -0.000000 -0.000001 -0.000003 0.000000 -0.000001 -0.000003 -0.000000 -0.000001 -0.000001 -0.000000 -0.000001 0.000000 -0.000001 -0.000001 -0.000001 -0.000000 -0.000001 -0.000000 -0.000001 0.000001 -0.000000 -0.000000 0.000001 -0.000000 -0.000000 0.000001 -0.000000 -0.000000 0.000001 -0.000000 -0.000000 0.000001 -0.000000 -0.000000 0.000001 -0.000000 -0.000000 0.000001 -0.000000 -0.000000 0.000000 -0.000001 0.000000 -0.000000 -0.000001 0.000000 
7.032995 87.578766 4.819454 7.718719 -12.652017 -1.569343 0.000000 0.000001 0.000000 -39.304447 5.544217 14.609442 54.232470 9.242832 -0.483541 -20.792595 5.049268 -9.433677 -0.000000 0.000000 0.000000 0.000002 0.000001 -0.000000 -24.595725 -7.312817 -14.894080 45.405212 -6.332986 -3.515986 -16.689876 -0.757955 15.004595 -0.000000 -0.000002 0.000000 -0.000000 0.000000 -0.000001 12.070663 3.224848 -0.842079 8.235414 6.693140 -1.358526 -3.710611 6.857831 0.094730 -0.297622 -0.650116 0.272899 -0.297629 -0.650117 0.272899 0.000001 -0.000000 -0.000000 -0.297613 -0.650115 0.272899 -0.297547 -0.650119 0.272900 0.000003 -0.000000 -0.000000 0.000001 -0.000000 -0.000000 -1.716034 -4.454584 -0.893410 -9.717388 -3.541835 -62.272276 -11.923618 -27.096119 -3.494368 2.744752 -3.959317 2.862258 7.883956 -13.676956 18.558642 1.209526 15.398667 -8.814978 0.000002 0.000002 -0.000006 0.211208 -3.927033 -8.217424 0.157839 -0.519710 -11.439755 -0.000000 -0.000000 -0.000000 0.210197 -1.865053 -18.972496 -0.061826 -0.817027 -16.141846 -0.000001 0.000003 0.000000 0.171274 -1.751791 -28.573611 -0.287841 -1.202507 -23.477080 -0.000001 0.000001 -0.000001 0.356397 -0.823090 -34.967488 -0.136331 -1.066898 -20.041216 0.000003 -0.000005 -0.000002 0.000000 0.000001 -0.000000 0.000000 0.000001 -0.000000 -0.000000 0.000001 -0.000001 0.000002 -0.000001 -0.000003 0.000002 -0.000001 -0.000003 0.000002 -0.000001 -0.000003 0.000001 0.000000 -0.000003 5.099001 -17.776582 2.830945 31.146827 51.316874 16.165634 17.702665 22.785031 11.882983 -9.757203 12.247069 4.285819 8.265270 7.734440 -18.880864 5.407725 -20.572234 9.831246 0.000001 -0.000003 -0.000001 0.272394 4.252668 3.917146 0.097382 0.794968 17.452800 0.000001 0.000001 -0.000003 0.239033 1.901187 12.464063 -0.126994 0.878937 17.470126 0.000000 -0.000001 -0.000000 0.313130 1.756773 17.989219 -0.312741 1.040286 20.987155 0.000003 0.000001 -0.000003 0.625751 0.703319 24.132009 -0.156820 0.902490 17.466307 -0.000000 0.000001 0.000001 -0.000000 0.000003 0.000000 0.000001 0.000001 -0.000001 -0.000000 0.000003 -0.000000 -0.000003 0.000001 -0.000001 -0.000003 0.000002 -0.000000 -0.000003 0.000001 -0.000001 -0.000002 0.000002 -0.000001 0.000000 0.000000 -0.000000 0.000000 0.000000 -0.000000 0.000000 0.000000 -0.000000 0.000000 0.000000 -0.000000 0.000000 0.000000 -0.000000 0.000000 0.000000 -0.000000 0.000000 0.000000 -0.000000 -0.000000 -0.000001 0.000000 0.000000 0.000001 0.000000 
